<?xml version="1.0" encoding="UTF-8" standalone="no"?>
<svg
   width="828.68799"
   height="184.47568"
   viewBox="0 0 828.68799 184.47568"
   version="1.1"
   xml:space="preserve"
   id="SVGRoot"
   inkscape:version="1.3.2 (091e20ef0f, 2023-11-25)"
   sodipodi:docname="steb.svg"
   xmlns:inkscape="http://www.inkscape.org/namespaces/inkscape"
   xmlns:sodipodi="http://sodipodi.sourceforge.net/DTD/sodipodi-0.dtd"
   xmlns="http://www.w3.org/2000/svg"
   xmlns:svg="http://www.w3.org/2000/svg"><defs
   id="defs3" />
<sodipodi:namedview
   pagecolor="#121212"
   bordercolor="#292929"
   borderopacity="1"
   inkscape:showpageshadow="2"
   inkscape:pageopacity="0.0"
   inkscape:pagecheckerboard="true"
   inkscape:deskcolor="#232323"
   id="namedview1"
   inkscape:zoom="0.67410846"
   inkscape:cx="397.56214"
   inkscape:cy="502.14471"
   inkscape:window-width="1366"
   inkscape:window-height="638"
   inkscape:window-x="0"
   inkscape:window-y="0"
   inkscape:window-maximized="1"
   inkscape:current-layer="SVGRoot"
   inkscape:export-bgcolor="#ffffff00" />
<style
   type="text/css"
   id="style1">
g.prefab path {
  vector-effect:non-scaling-stroke;
  -inkscape-stroke:hairline;
  fill: none;
  fill-opacity: 1;
  stroke-opacity: 1;
  stroke: #00349c;
}
</style>

<rect
   style="fill:#ffffff;stroke-width:1.18879"
   id="rect1"
   width="263.15665"
   height="139.22017"
   x="0"
   y="45.255493" /><path
   d="m 368.31209,184.47563 c -14.70649,0 -27.55355,-3.4653 -38.54118,-10.39596 -10.81857,-7.0997 -18.25637,-16.65049 -22.31333,-28.65234 l 24.84893,-11.91734 c 3.54986,7.77586 8.45203,13.8613 14.70651,18.25635 6.42354,4.39506 13.52322,6.59258 21.29907,6.59258 6.08547,0 10.90311,-1.35233 14.45295,-4.05699 3.54985,-2.70464 5.32478,-6.25448 5.32478,-10.64952 0,-2.70465 -0.76067,-4.90218 -2.28203,-6.59258 -1.35234,-1.85944 -3.2963,-3.38082 -5.83191,-4.5641 -2.36654,-1.35232 -4.98669,-2.45109 -7.86037,-3.29629 l -22.56689,-6.33901 c -11.66378,-3.38081 -20.5384,-8.53653 -26.62387,-15.46719 -5.9164,-6.93065 -8.87459,-15.129097 -8.87459,-24.595367 0,-8.45201 2.113,-15.80527 6.339,-22.05977 4.39504,-6.42353 10.396,-11.41021 18.0028,-14.96007 7.77586,-3.54984 16.65047,-5.32478 26.62385,-5.32478 13.01611,0 24.51087,3.12724 34.48424,9.38175 9.97339,6.25449 17.07307,15.04458 21.29907,26.37031 l -25.35605,11.91734 c -2.36656,-6.25449 -6.33899,-11.24119 -11.91733,-14.96009 -5.57834,-3.71887 -11.83283,-5.57831 -18.76349,-5.57831 -5.57832,0 -9.97338,1.2678 -13.18514,3.8034 -3.21177,2.5356 -4.81765,5.83188 -4.81765,9.88887 0,2.53559 0.67615,4.73311 2.0285,6.59257 1.35231,1.85944 3.21174,3.3808 5.57832,4.56408 2.53558,1.18328 5.40929,2.28206 8.62105,3.29629 l 22.05978,6.592577 c 11.32569,3.3808 20.03128,8.45201 26.11673,15.21362 6.25449,6.76162 9.38173,15.04459 9.38173,24.84894 0,8.28299 -2.19753,15.63623 -6.59257,22.05975 -4.39505,6.2545 -10.4805,11.15668 -18.25635,14.70653 -7.77586,3.54984 -16.90406,5.32475 -27.38456,5.32475 z m 133.68089,-1.52135 c -15.55173,0 -27.63812,-4.22601 -36.25918,-12.67802 -8.45205,-8.62106 -12.67803,-20.70743 -12.67803,-36.25916 V 73.162563 h -23.83468 v -29.66657 h 2.5356 c 6.76162,0 12.00187,-1.77491 15.72075,-5.32476 3.71891,-3.54986 5.57833,-8.70558 5.57833,-15.46719 V 1.3486328e-5 H 486.2722 V 43.495993 h 31.69504 v 29.66657 H 486.2722 v 59.079627 c 0,4.56406 0.7607,8.45199 2.28207,11.66377 1.69036,3.21177 4.22599,5.66287 7.60679,7.35325 3.54984,1.69041 8.02943,2.53561 13.4387,2.53561 1.18331,0 2.53564,-0.0845 4.05699,-0.25355 1.69037,-0.16905 3.29629,-0.3381 4.81766,-0.50714 v 28.39878 c -2.36659,0.33809 -5.0712,0.67618 -8.11395,1.01424 -3.04272,0.3381 -5.83191,0.50713 -8.36748,0.50713 z m 98.94327,1.52135 c -14.19935,0 -26.62385,-3.21176 -37.27336,-9.63528 -10.64958,-6.42354 -18.93252,-15.1291 -24.84894,-26.11673 -5.91641,-10.98762 -8.87467,-23.15855 -8.87467,-36.51271 0,-13.861317 2.95826,-26.116737 8.87467,-36.766287 6.0854,-10.81858 14.28392,-19.35513 24.59538,-25.60962 10.48046,-6.25451 22.14424,-9.38175 34.99135,-9.38175 10.81857,0 20.28482,1.77494 28.39876,5.32478 8.28294,3.54986 15.29811,8.45203 21.04556,14.70651 5.74736,6.25451 10.14241,13.43871 13.18506,21.55265 3.04275,7.94491 4.56411,16.56597 4.56411,25.863177 0,2.36657 -0.16898,4.81764 -0.50709,7.35324 -0.16905,2.53561 -0.59167,4.73314 -1.26782,6.5926 H 557.32386 V 96.490143 h 87.73195 l -15.72079,11.917347 c 1.52136,-7.77586 1.09876,-14.706507 -1.26775,-20.791967 -2.19761,-6.08544 -5.91642,-10.9031 -11.15668,-14.45296 -5.07121,-3.54984 -11.24118,-5.32476 -18.50991,-5.32476 -6.93069,0 -13.10066,1.77492 -18.50999,5.32476 -5.40923,3.38081 -9.55074,8.45202 -12.42442,15.21364 -2.70462,6.59257 -3.7189,14.621987 -3.04273,24.088257 -0.67617,8.45201 0.4226,15.97431 3.29628,22.56688 3.04274,6.42354 7.43779,11.41022 13.18515,14.96009 5.91642,3.54984 12.67805,5.32476 20.28482,5.32476 7.60685,0 14.03037,-1.60589 19.27063,-4.81767 5.40924,-3.21176 9.63531,-7.52228 12.67805,-12.93158 l 26.8774,13.18515 c -2.7047,6.59257 -6.93069,12.42446 -12.67805,17.49569 -5.74737,5.0712 -12.59348,9.04366 -20.53838,11.91733 -7.7759,2.87369 -16.39694,4.31052 -25.86319,4.31052 z m 158.0226,0 c -9.97335,0 -19.18607,-1.94396 -27.63813,-5.83188 -8.28292,-4.05697 -14.87549,-9.80434 -19.77772,-17.24211 l 3.29629,-6.59257 v 26.62384 H 683.6514 V 1.3486328e-5 h 33.21642 V 70.880533 l -5.07127,-6.84615 c 4.73317,-7.43775 11.15669,-13.18514 19.27063,-17.24211 8.11394,-4.226 17.49563,-6.33902 28.14521,-6.33902 13.01609,0 24.76444,3.21177 35.24489,9.63531 10.48054,6.42355 18.76354,15.04459 24.84894,25.86317 6.25453,10.81859 9.38175,22.98949 9.38175,36.512727 0,13.35417 -3.04273,25.52509 -9.12813,36.51272 -6.08548,10.98761 -14.36848,19.69319 -24.849,26.11672 -10.48046,6.25449 -22.39778,9.38173 -35.75199,9.38173 z m -3.80338,-30.42725 c 7.60676,0 14.3684,-1.77492 20.28481,-5.32476 5.91643,-3.54985 10.48053,-8.45203 13.69224,-14.70652 3.38087,-6.25447 5.07122,-13.43871 5.07122,-21.55264 0,-8.11394 -1.69035,-15.213637 -5.07122,-21.299087 -3.21171,-6.2545 -7.77581,-11.15667 -13.69224,-14.70651 -5.91641,-3.7189 -12.67805,-5.57833 -20.28481,-5.57833 -7.26881,0 -13.86132,1.77493 -19.77773,5.32478 -5.74736,3.54984 -10.31147,8.53653 -13.69233,14.96006 -3.21172,6.25449 -4.81759,13.354197 -4.81759,21.299087 0,8.11393 1.60587,15.29817 4.81759,21.55264 3.38086,6.25449 7.94497,11.15667 13.69233,14.70652 5.91641,3.54984 12.50892,5.32476 19.77773,5.32476 z"
   id="text5"
   style="font-weight:bold;font-size:179.952px;font-family:'Plus Jakarta Sans';-inkscape-font-specification:'Plus Jakarta Sans Bold';letter-spacing:-5px;display:inline;fill:#ffffff;stroke-width:2.64125"
   aria-label="steb"
   sodipodi:nodetypes="sccccssscccccsccssccsssssccccscssscscccsssccccccsccscccssssssccscscsccccccccscccccscccscssccccccccccsscsscssscsccsccsccs" /></svg>
